# xmcd
#
# Track frame offsets:
#	182
#	17470
#	31870
#	49270
#	65170
#	85720
#	99370
#	117895
#	129520
#	151720
#	166870
#	185695
#	200065
#	211795
#
# Disc length: 3084 seconds
#
# Revision: 1
# Processed by: cddbd v1.5.1PL0 Copyright (c) Steve Scherf et al.
# Submitted via: audiograbber 1.83.01
#
DISCID=b00c0a0e
DTITLE=Various Artist - The New Sound Of Country #2[CD1]
DYEAR=1900
DGENRE=Country
TTITLE0=Gordon Lightfoot - If You Could Read My Mind
TTITLE1=Randy Travis - Look Heart, No Hands
TTITLE2=John Anderson - Whne It Comes To You
TTITLE3=Shenandoah - Hey Mister, I Need This Job
TTITLE4=The Notting Hillbillies - Your Own Sweet Way
TTITLE5=Conway Twitty - You've Never Been This Far Before
TTITLE6=Don Williams - I Believe In You
TTITLE7=George Strait - The Fireman
TTITLE8=Graeme Connors - Living Off The Land
TTITLE9=Ricky Van Shelton - Somebody Lied
TTITLE10=Ozark Mountain Daredevils - Jackie Blue
TTITLE11=Colin Buchanan - Come What May
TTITLE12=Col Joye - Heaven Is My Womans Love
TTITLE13=Mac Davis - Hard To Be Humble
EXTD=
EXTT0=
EXTT1=
EXTT2=
EXTT3=
EXTT4=
EXTT5=
EXTT6=
EXTT7=
EXTT8=
EXTT9=
EXTT10=
EXTT11=
EXTT12=
EXTT13=
PLAYORDER=
